<?xml version="1.0" standalone="no"?>
<!DOCTYPE svg PUBLIC "-//W3C//DTD SVG 20010904//EN"
 "http://www.w3.org/TR/2001/REC-SVG-20010904/DTD/svg10.dtd">
<svg version="1.0" xmlns="http://www.w3.org/2000/svg"
 width="300.000000pt" height="300.000000pt" viewBox="0 0 300.000000 300.000000"
 preserveAspectRatio="xMidYMid meet">
<metadata>
Created by potrace 1.14, written by Peter Selinger 2001-2017
</metadata>
<g transform="translate(0.000000,300.000000) scale(0.100000,-0.100000)"
fill="#0BC5EA" stroke="none">
<path d="M1255 2755 c-225 -46 -397 -127 -575 -274 -234 -193 -376 -440 -446
-776 -13 -64 -12 -332 2 -406 79 -424 316 -750 680 -936 183 -94 340 -133 549
-139 284 -7 524 63 755 219 277 188 462 466 536 807 25 116 25 380 0 498 -85
401 -334 724 -691 897 -60 30 -140 64 -177 75 -194 61 -434 75 -633 35z m676
-597 c15 -25 38 -66 52 -90 13 -23 79 -137 146 -252 66 -115 121 -211 121
-213 0 -2 11 -21 25 -41 14 -20 25 -44 25 -53 0 -9 -89 -171 -199 -360 l-199
-344 -408 0 -408 0 -41 70 c-89 151 -154 262 -183 315 -17 30 -64 113 -106
184 -64 110 -74 132 -64 150 12 24 115 203 129 226 11 18 133 229 161 280 11
19 34 60 51 90 55 100 6 91 465 88 l406 -3 27 -47z"/>
</g>
</svg>
